<svg xmlns="http://www.w3.org/2000/svg" version="1.1" xmlns:xlink="http://www.w3.org/1999/xlink" xmlns:svgjs="http://svgjs.dev/svgjs" width="1000" height="1000" viewBox="0 0 1000 1000"><rect width="1000" height="1000" fill="#ffffff"></rect><g transform="matrix(0.7,0,0,0.7,149.84897959183667,150.19913061224486)"><svg viewBox="0 0 343 343" data-background-color="#755bb4" preserveAspectRatio="xMidYMid meet" height="999" width="1000" xmlns="http://www.w3.org/2000/svg" xmlns:xlink="http://www.w3.org/1999/xlink"><g id="tight-bounds" transform="matrix(1,0,0,1,0.0740000000000407,0.07400000000001228)"><svg viewBox="0 0 342.85155851775386 342.85155851775386" height="342.85155851775386" width="342.85155851775386"><g><svg></svg></g><g><svg viewBox="0 0 342.85155851775386 342.85155851775386" height="342.85155851775386" width="342.85155851775386"><g><path d="M0 171.426c0-94.676 76.75-171.426 171.426-171.426 94.676 0 171.426 76.75 171.426 171.426 0 94.676-76.75 171.426-171.426 171.426-94.676 0-171.426-76.75-171.426-171.426zM171.426 341.041c93.676 0 169.615-75.939 169.615-169.615 0-93.676-75.939-169.615-169.615-169.615-93.676 0-169.615 75.939-169.615 169.615 0 93.676 75.939 169.615 169.615 169.615z" data-fill-palette-color="tertiary" fill="#000000" stroke="transparent"></path><ellipse rx="164.56874808852186" ry="164.56874808852186" cx="171.42577925887693" cy="171.42577925887693" fill="#000000" stroke="transparent" stroke-width="0" fill-opacity="1" data-fill-palette-color="tertiary"></ellipse></g><g transform="matrix(1,0,0,1,64.84655864529837,149.5453784906918)"><svg viewBox="0 0 213.1584412271571 43.76080153637028" height="43.76080153637028" width="213.1584412271571"><g><svg viewBox="0 0 364.181636200473 74.76541962500094" height="43.76080153637028" width="213.1584412271571"><g><rect width="3.0937314478019844" height="74.76541962500094" x="139.8306901019485" y="0" fill="#000000" opacity="1" stroke-width="0" stroke="transparent" fill-opacity="1" class="rect-o-0" data-fill-palette-color="primary" rx="1%" id="o-0" data-palette-color="#ffffff"></rect></g><g transform="matrix(1,0,0,1,151.0231949733159,0.18598363090795544)"><svg viewBox="0 0 213.1584412271571 74.39345236318503" height="74.39345236318503" width="213.1584412271571"><g id="textblocktransform"><svg viewBox="0 0 213.1584412271571 74.39345236318503" height="74.39345236318503" width="213.1584412271571" id="textblock"><g><svg viewBox="0 0 213.1584412271571 74.39345236318503" height="74.39345236318503" width="213.1584412271571"><g transform="matrix(1,0,0,1,0,0)"><svg width="213.1584412271571" viewBox="1.1499996185302734 -35 221.20001220703125 74.20000457763672" height="74.39345236318503" data-palette-color="#755bb4"><svg></svg><svg></svg><g class="wordmark-text-0" data-fill-palette-color="quaternary" id="text-0"><path xmlns="http://www.w3.org/2000/svg" d="M34.75-25.6h-11.25v25.6h-11.05v-25.6h-11.3v-8.8h33.6zM72.45-23.85c0 2.1-0.567 4-1.7 5.7-1.133 1.7-2.783 2.95-4.95 3.75v0l7.65 14.4h-12.4l-6.1-12.55h-4.1v12.55h-11.05v-34.4h21.05c2.467 0 4.577 0.473 6.33 1.42 1.747 0.953 3.063 2.237 3.95 3.85 0.88 1.62 1.32 3.38 1.32 5.28zM61.2-23.4c0-0.9-0.3-1.65-0.9-2.25-0.6-0.6-1.333-0.9-2.2-0.9v0h-7.25v6.35h7.25c0.867 0 1.6-0.31 2.2-0.93 0.6-0.613 0.9-1.37 0.9-2.27zM98.35-7.7h7.85v7.7h-25.95v-7.7h8.15v-15.55h-8.15v-5.8c2.233-0.133 4.733-0.727 7.5-1.78 2.767-1.047 5.183-2.253 7.25-3.62v0h3.35zM143.1-25.6h-11.25v25.6h-11.05v-25.6h-11.3v-8.8h33.6zM163.55-35c5.933 0 10.517 1.517 13.75 4.55 3.233 3.033 4.85 7.45 4.85 13.25v0c0 5.8-1.617 10.217-4.85 13.25-3.233 3.033-7.817 4.55-13.75 4.55v0c-5.933 0-10.51-1.51-13.73-4.53-3.213-3.013-4.82-7.437-4.82-13.27v0c0-5.833 1.607-10.26 4.82-13.28 3.22-3.013 7.797-4.52 13.73-4.52zM163.55-26.75c-2.367 0-4.167 0.717-5.4 2.15-1.233 1.433-1.85 3.367-1.85 5.8v0 3.2c0 2.433 0.617 4.367 1.85 5.8 1.233 1.433 3.033 2.15 5.4 2.15v0c2.367 0 4.173-0.717 5.42-2.15 1.253-1.433 1.88-3.367 1.88-5.8v0-3.2c0-2.433-0.627-4.367-1.88-5.8-1.247-1.433-3.053-2.15-5.42-2.15zM222.35 0h-9.65l-14.45-16.7v16.7h-10.15v-34.4h9.65l14.45 16.95v-16.95h10.15z" fill="#ffffff" fill-rule="nonzero" stroke="none" stroke-width="1" stroke-linecap="butt" stroke-linejoin="miter" stroke-miterlimit="10" stroke-dasharray="" stroke-dashoffset="0" font-family="none" font-weight="none" font-size="none" text-anchor="none" style="mix-blend-mode: normal" data-fill-palette-color="quaternary" opacity="1"></path><path xmlns="http://www.w3.org/2000/svg" d="M18.15 3.6c4.4 0 8.017 0.89 10.85 2.67 2.833 1.787 4.283 4.43 4.35 7.93v0 0.6h-10.35v-0.2c0-1-0.367-1.833-1.1-2.5-0.733-0.667-1.85-1-3.35-1v0c-1.467 0-2.59 0.217-3.37 0.65-0.787 0.433-1.18 0.967-1.18 1.6v0c0 0.9 0.533 1.567 1.6 2 1.067 0.433 2.783 0.883 5.15 1.35v0c2.767 0.567 5.043 1.157 6.83 1.77 1.78 0.62 3.337 1.63 4.67 3.03 1.333 1.4 2.017 3.3 2.05 5.7v0c0 4.067-1.373 7.083-4.12 9.05-2.753 1.967-6.43 2.95-11.03 2.95v0c-5.367 0-9.54-0.9-12.52-2.7-2.987-1.8-4.48-4.983-4.48-9.55v0h10.45c0 1.733 0.45 2.89 1.35 3.47 0.9 0.587 2.3 0.88 4.2 0.88v0c1.4 0 2.56-0.15 3.48-0.45 0.913-0.3 1.37-0.917 1.37-1.85v0c0-0.833-0.507-1.46-1.52-1.88-1.02-0.413-2.68-0.853-4.98-1.32v0c-2.8-0.6-5.117-1.227-6.95-1.88-1.833-0.647-3.433-1.72-4.8-3.22-1.367-1.5-2.05-3.533-2.05-6.1v0c0-3.767 1.46-6.543 4.38-8.33 2.913-1.78 6.603-2.67 11.07-2.67zM74.05 38.6h-11.05v-13.05h-12.15v13.05h-11.05v-34.4h11.05v12.55h12.15v-12.55h11.05zM93 38.6h-11.05v-34.4h11.05zM100.9 38.6v-34.4h29.75v8.25h-18.7v4.75h16v7.9h-16v5.25h19.05v8.25zM137 38.6v-34.4h11.05v25.6h17.65v8.8zM185.25 4.2c12.033 0 18.05 5.733 18.05 17.2v0c0 11.467-6.017 17.2-18.05 17.2v0h-14.9v-34.4zM181.4 12.45v17.9h3.65c4.633 0 6.95-2.483 6.95-7.45v0-3c0-4.967-2.317-7.45-6.95-7.45v0z" fill="#ffffff" fill-rule="nonzero" stroke="none" stroke-width="1" stroke-linecap="butt" stroke-linejoin="miter" stroke-miterlimit="10" stroke-dasharray="" stroke-dashoffset="0" font-family="none" font-weight="none" font-size="none" text-anchor="none" style="mix-blend-mode: normal" data-fill-palette-color="quaternary" opacity="1"></path></g></svg></g></svg></g></svg></g></svg></g><g transform="matrix(1,0,0,1,0,4.36832000649715)"><svg viewBox="0 0 131.7319166783831 66.02877961200664" height="66.02877961200664" width="131.7319166783831"><g><svg xmlns="http://www.w3.org/2000/svg" xmlns:xlink="http://www.w3.org/1999/xlink" xml:space="preserve" style="shape-rendering:geometricPrecision;text-rendering:geometricPrecision;image-rendering:optimizeQuality;" viewBox="0.0000020265579223632812 0.0000027120113372802734 14.727499008178711 7.38195276260376" x="0" y="0" fill-rule="evenodd" clip-rule="evenodd" width="131.7319166783831" height="66.02877961200664" class="icon-icon-0" data-fill-palette-color="quaternary" id="icon-0"><g fill="#755bb4" data-fill-palette-color="quaternary"><path class="" d="M1.757 3.091c-0.313 0.444-0.296 1.331-0.417 1.95-0.153 0.784-0.711 1.203-1.34 1.534 0.188-0.771 0.348-1.542 0.412-2.313 0.078-0.953-0.06-0.891 0.767-1.575 1.159-0.961 3.04-1.741 5.848-2.29 2.456-0.406 5.049-0.453 7.701-0.351-0.89 1.809-3.733 1.961-7.203 1.581-1.811 0.02-3.495-0.488-5.768 1.464z m8.33 2.781c-3.895 2.038-7.803-2.284-9.165 0.688 2.104-1.831 5.079 3.183 9.165-0.688z m2.489-2.547c-4.49 2.72-9.502-0.792-10.907 1.859 3.412-1.235 7.765 2.753 10.907-1.859z m0.834-1.478c-3.944 1.761-10.043-1.402-11.565 2.239 3.106-1.808 8.446 1.438 11.565-2.239z" fill="#ffffff" data-fill-palette-color="quaternary"></path></g></svg></g></svg></g></svg></g></svg></g></svg></g><defs></defs></svg><rect width="342.85155851775386" height="342.85155851775386" fill="none" stroke="none" visibility="hidden"></rect></g></svg></g></svg>